<svg xmlns="http://www.w3.org/2000/svg" viewBox="0 0 96 96" role="img" aria-labelledby="title">
  <title id="title">PunjabShip favicon</title>
  <defs>
    <linearGradient id="ocean" x1="18" y1="16" x2="78" y2="82" gradientUnits="userSpaceOnUse">
      <stop stop-color="#22c9ff"/>
      <stop offset=".48" stop-color="#0877c9"/>
      <stop offset="1" stop-color="#05235a"/>
    </linearGradient>
    <linearGradient id="wave" x1="6" y1="70" x2="86" y2="70" gradientUnits="userSpaceOnUse">
      <stop stop-color="#18bfff"/>
      <stop offset="1" stop-color="#06336d"/>
    </linearGradient>
    <clipPath id="globeClip">
      <circle cx="42" cy="39" r="25"/>
    </clipPath>
  </defs>
  <rect width="96" height="96" rx="22" fill="#f8fcff"/>
  <circle cx="42" cy="39" r="26" fill="url(#ocean)"/>
  <g clip-path="url(#globeClip)" fill="none" stroke="#e8fbff" stroke-width="2.2" opacity=".9">
    <path d="M18 39h48"/>
    <path d="M22 28c11 5 27 5 40 0"/>
    <path d="M22 50c11-5 27-5 40 0"/>
    <path d="M42 13c-8 8-11 17-11 26s3 18 11 26"/>
    <path d="M42 13c8 8 11 17 11 26s-3 18-11 26"/>
  </g>
  <path d="M15 66c13-8 29-12 47-12h21L70 70H34c-9 0-16 1-24 4 1-3 3-6 5-8Z" fill="#06295d"/>
  <path d="M54 43h19l10 10H61l-7-10Z" fill="#ffffff"/>
  <path d="M9 76c22-9 42-10 69-5-25 1-45 5-65 14-3-2-4-5-4-9Z" fill="url(#wave)"/>
  <path d="M4 60h20M9 52h25M15 44h20" stroke="#1ac4ff" stroke-width="4" stroke-linecap="round"/>
</svg>
